<svg id="Layer_2" data-name="Layer 2" xmlns="http://www.w3.org/2000/svg" viewBox="0 0 174.47693 189.60854"><title>Icons</title><path d="M150.99051,32.36751V163.40079h-1.34167q-58.18125,0-116.36254-.00025c-.342,0-.685.01215-1.02589-.008a7.22653,7.22653,0,0,1-6.72972-4.71617,7.683,7.683,0,0,1,1.0355-8.201c1.70715-2.103,3.99392-2.77562,6.63714-2.77383q50.33143.03445,100.66281.01512h1.45408V18.7148h-1.32209q-50.17749,0-100.355.00113c-.61554,0-1.23249-.00672-1.8464.02977a19.72663,19.72663,0,0,0-9.32162,2.83082c-6.99965,4.32232-10.63449,10.59775-10.63449,18.88989q0,53.97415.00059,107.94831c0,.47883-.01053.95875.01682,1.43629a21.31428,21.31428,0,0,0,21.73988,20.37331q61.618.31152,123.23567.66936c.32635.00179.65291-.03153,1.00272-.04965V33.02838C155.58159,32.81072,153.354,32.59569,150.99051,32.36751Zm-41.4817,35.96786c4.46486,1.438,6.42745,7.74846,4.38352,14.09492S106.572,92.75592,102.10711,91.318,95.67965,83.5695,97.72354,77.223,105.0439,66.89741,109.50881,68.33537ZM80.70231,57.97019c1.17946-7.115,6.20019-12.20906,11.21411-11.37791s8.12237,7.2728,6.94291,14.38782S92.65914,73.18912,87.64521,72.358,79.52284,65.08517,80.70231,57.97019ZM77.4843,73.483l-.00117.03849c1.45023.17946,5.03388,1.23905,8.29677,7.11552a29.82621,29.82621,0,0,0,9.78376,10.81875s6.88645,3.40682,7.73548,8.99335-3.09146,11.17754-6.57,12.93087c-3.43358,1.73057-5.19021,2.68134-10.66626,1.10881s-4.48023-2.56865-10.40647-2.813l.0005-.01586c-5.20428-.02631-4.554.99366-9.899,2.18126-5.56177,1.23579-7.03706.12392-10.57883-1.757-3.44043-1.8271-6.9576-7.78287-5.76962-13.30727s8.26926-8.50513,8.26926-8.50513A29.82647,29.82647,0,0,0,68.10372,80.06957C72.77042,72.75434,77.4843,73.483,77.4843,73.483ZM64.05385,45.71407c5.0553-.524,9.75615,4.86666,10.49971,12.0403s-2.75179,13.41387-7.80705,13.93784S56.99036,66.82555,56.2468,59.65187,58.99859,46.238,64.05385,45.71407Zm-18.885,20.63027c4.54423-1.1631,9.56826,3.13028,11.22154,9.58951S55.7,88.57227,51.1558,89.73537s-9.5683-3.13029-11.22154-9.58952S40.62457,67.50743,45.16881,66.34434Z" fill="#ebebeb"/></svg>