<svg id="Layer_1" data-name="Layer 1" xmlns="http://www.w3.org/2000/svg" viewBox="0 0 239.13655 59.44484"><title>hoap-logo</title><path d="M114.81547,19.54967a27.29368,27.29368,0,0,0-4.96826-8.31592,25.10252,25.10252,0,0,0-7.70361-5.93994,21.84133,21.84133,0,0,0-9.97217-2.26806,22.73482,22.73482,0,0,0-9.82812,2.124,24.58851,24.58851,0,0,0-7.77587,5.72412,27.173,27.173,0,0,0-5.148,8.27978,26.10738,26.10738,0,0,0-1.87207,9.792,26.92453,26.92453,0,0,0,1.76416,9.57617,26.31631,26.31631,0,0,0,5.00389,8.31592,24.83954,24.83954,0,0,0,7.73975,5.832,23.6053,23.6053,0,0,0,19.728.07178,25.27971,25.27971,0,0,0,7.812-5.688,25.84912,25.84912,0,0,0,5.148-8.24366,26.6651,26.6651,0,0,0,.07225-19.26025ZM93.78,18.356c.55481-3.34675,2.91645-5.74286,5.2749-5.35193s3.82062,3.421,3.26581,6.76776-2.91644,5.74286-5.2749,5.35193S93.22513,21.70275,93.78,18.356Zm-7.831-5.765c2.37786-.24646,4.58905,2.28919,4.93884,5.66351s-1.29444,6.30964-3.6723,6.5561-4.58912-2.28919-4.93885-5.66352,1.29438-6.3097,3.67231-6.55616ZM74.6035,28.787c-.77765-3.03833.32471-5.94489,2.46223-6.49195s4.50073,1.47241,5.27838,4.51068-.32471,5.94489-2.46222,6.49195S75.38113,31.82524,74.6035,28.787Zm26.71516,15.6326a5.40136,5.40136,0,0,1-5.01722.52155c-2.57586-.73962-2.10743-1.20819-4.895-1.32318l.00023-.00745c-2.448-.01239-2.14209.46741-4.65631,1.026-2.61615.5813-3.31006.05829-4.97606-.82641a6.24245,6.24245,0,0,1-2.71387-6.25946c.55878-2.59857,3.88965-4.00067,3.88965-4.00067a14.03,14.03,0,0,0,4.90381-4.79889c2.19506-3.441,4.4124-3.09821,4.4124-3.09821l-.00055.01813c.68213.08441,2.3678.58282,3.90265,3.347a14.03,14.03,0,0,0,4.602,5.08893s3.23926,1.60248,3.63861,4.23029A6.361,6.361,0,0,1,101.31866,44.4196Zm8.07324-14.5581c-.96144,2.98529-3.44336,4.857-5.54358,4.1806s-3.02331-3.64471-2.06189-6.63,3.44336-4.85694,5.54352-4.18054S110.35332,26.87627,109.3919,29.8615Z" fill="#717070"/><path d="M59.60512,54.83362H47.13246V34.87756H24.53041V54.83362h-12.397V3.43127h12.397V23.38733H47.13246V3.43127H59.60512Z" fill="#717070"/><path d="M159.70863,46.85315H134.91469l-3.40137,8.01269H118.36L140.35707,3.4635h13.833l22.07324,51.40234H163.0348ZM155.4,36.72424l-8.0127-19.20117-8.16406,19.20117Z" fill="#717070"/><path d="M227.52016,23.26819c0,10.12988-6.42481,19.95605-19.57813,19.95605h-11.1875v11.6416H184.28187V3.4635h23.73536C221.17055,3.4635,227.52016,13.29065,227.52016,23.26819Zm-30.76563-8.31543V31.81018h9.82715c4.98828,0,8.39062-2.94824,8.39062-8.542,0-5.51758-3.40234-8.23926-8.39062-8.31543Z" fill="#717070"/></svg>