<svg id="Layer_2" data-name="Layer 2" xmlns="http://www.w3.org/2000/svg" viewBox="0 0 198.32028 59.44484"><title>Icons</title><path d="M102.00235,19.54967a27.29393,27.29393,0,0,0-4.96826-8.31592,25.1025,25.1025,0,0,0-7.70361-5.93994,21.84136,21.84136,0,0,0-9.97217-2.26806,22.7349,22.7349,0,0,0-9.82812,2.124,24.58858,24.58858,0,0,0-7.77588,5.72412,27.173,27.173,0,0,0-5.14795,8.27978,26.10743,26.10743,0,0,0-1.87207,9.792,26.92457,26.92457,0,0,0,1.76416,9.57617,26.31616,26.31616,0,0,0,5.0039,8.31592,24.83949,24.83949,0,0,0,7.73975,5.832,23.60528,23.60528,0,0,0,19.728.07178,25.27965,25.27965,0,0,0,7.812-5.688,25.84923,25.84923,0,0,0,5.148-8.24366,26.66511,26.66511,0,0,0,.07226-19.26025ZM80.96683,18.356c.55481-3.34675,2.91644-5.74286,5.2749-5.35193s3.82062,3.421,3.26581,6.76776-2.91644,5.74286-5.2749,5.35193S80.412,21.70275,80.96683,18.356Zm-7.83105-5.765c2.37787-.24646,4.58905,2.28919,4.93884,5.66351s-1.29443,6.30964-3.6723,6.5561-4.58911-2.28919-4.93884-5.66352S70.75785,12.83739,73.13578,12.59093ZM61.79038,28.787c-.77765-3.03833.32471-5.94489,2.46222-6.49195s4.50073,1.47241,5.27838,4.51068-.32471,5.94489-2.46222,6.49195S62.568,31.82524,61.79038,28.787ZM88.50553,44.4196a5.40136,5.40136,0,0,1-5.01721.52155c-2.57587-.73962-2.10743-1.20819-4.895-1.32318l.00024-.00745c-2.448-.01239-2.14209.46741-4.65631,1.026-2.61615.5813-3.31006.05829-4.97607-.82641a6.24246,6.24246,0,0,1-2.71387-6.25946c.55878-2.59857,3.88965-4.00067,3.88965-4.00067a14.02991,14.02991,0,0,0,4.90381-4.79889c2.19506-3.441,4.41241-3.09821,4.41241-3.09821l-.00055.01813c.68213.08441,2.3678.58282,3.90265,3.347a14.0299,14.0299,0,0,0,4.60205,5.08893s3.23926,1.60248,3.63861,4.23029A6.36107,6.36107,0,0,1,88.50553,44.4196Zm8.07324-14.5581c-.96143,2.98529-3.44336,4.857-5.54358,4.1806s-3.02331-3.64471-2.06189-6.63,3.44336-4.85694,5.54352-4.18054S97.5402,26.87627,96.57877,29.8615Z" fill="#717070"/><path d="M46.4545,3.74547V54.86559H38.31876V32.32946H12.54288V54.86559H4.47843V3.74547h8.06445V25.12975H38.31876V3.74547Z" fill="#717070"/><path d="M125.36661,3.74547h7.05567l20.16015,51.12012h-8.49609l-5.3999-13.896h-19.728l-5.32813,13.896h-8.56787Zm11.73584,31.248-8.208-21.96-8.49609,21.96Z" fill="#717070"/><path d="M158.91788,54.86559V3.74547h21.45606A14.198,14.198,0,0,1,186.746,5.18541a16.33077,16.33077,0,0,1,5.0039,3.78028,17.83557,17.83557,0,0,1,3.27637,5.32812,16.34043,16.34043,0,0,1,1.188,6.084,17.66408,17.66408,0,0,1-1.11621,6.228,17.44433,17.44433,0,0,1-3.13184,5.32764,15.24914,15.24914,0,0,1-4.85986,3.74414,14.03871,14.03871,0,0,1-6.30029,1.40381H166.98233V54.86559Zm8.06445-24.91211h13.31983a6.76229,6.76229,0,0,0,3.13184-.71973,7.19161,7.19161,0,0,0,2.4121-2.01611,10.08266,10.08266,0,0,0,1.584-3.02393,12.01555,12.01555,0,0,0,.57617-3.81591,11.01608,11.01608,0,0,0-.648-3.88819,9.132,9.132,0,0,0-1.80029-2.98779,8.26128,8.26128,0,0,0-2.62793-1.94434A7.21,7.21,0,0,0,179.87,10.8734h-12.8877Z" fill="#717070"/></svg>