<svg id="Layer_2" data-name="Layer 2" xmlns="http://www.w3.org/2000/svg" viewBox="0 0 174.47693 189.60854"><title>Icons</title><path d="M144.2197,84.792a58.1637,58.1637,0,1,0-114.76782,0h-.00794a37.60132,37.60132,0,0,0,1.72828,7.42041,57.78226,57.78226,0,0,0,4.11853,10.04852c14.7174,30.86695,51.545,75.29425,51.545,75.29425C147.34116,104.44486,144.23032,84.792,144.23032,84.792ZM90.79642,51.30167c1.28-7.72155,6.7287-13.24981,12.17005-12.34783s8.81475,7.89276,7.53473,15.61431-6.7287,13.24976-12.17005,12.34778S89.51639,59.02317,90.79642,51.30167ZM72.7288,38.00077c5.4862-.56866,10.58776,5.2815,11.39471,13.06671S81.13718,65.62473,75.651,66.1934,65.06321,60.9119,64.25626,53.12675,67.24259,38.56944,72.7288,38.00077ZM46.55314,75.36765c-1.79419-7.00988.74914-13.71576,5.68072-14.978s10.384,3.39709,12.17816,10.40692-.7492,13.71576-5.68078,14.978S48.34733,82.37754,46.55314,75.36765Zm61.63623,36.06714c-3.72626,1.87812-5.63263,2.90991-11.5755,1.20331s-4.86213-2.7876-11.29358-3.05286l.00055-.01721c-5.64789-.02856-4.94226,1.07837-10.74286,2.36719-6.03589,1.34119-7.6369.13452-11.48059-1.90668-3.73371-1.98285-7.55072-8.44635-6.26148-14.44165s8.97418-9.23016,8.97418-9.23016a32.369,32.369,0,0,0,11.31379-11.0719c5.06451-7.93878,10.18017-7.148,10.18017-7.148l-.00122.04175c1.57385.19476,5.463,1.34466,9.004,7.7221a32.3688,32.3688,0,0,0,10.61774,11.741s7.47345,3.69721,8.39489,9.76S111.96451,109.532,108.18937,111.43479Zm18.62628-33.588c-2.21814,6.88745-7.94434,11.20581-12.78986,9.64526s-6.97534-8.40893-4.7572-15.29638,7.9444-11.20581,12.78986-9.64533S129.03379,70.95939,126.81565,77.84684Z" fill="#ebebeb"/></svg>