<svg id="Layer_2" data-name="Layer 2" xmlns="http://www.w3.org/2000/svg" viewBox="0 0 164.49822 164.49822"><title>Icons</title><ellipse cx="60.63111" cy="41.84247" rx="17.07242" ry="24.22658" transform="translate(-3.99079 6.47393) rotate(-5.91761)" fill="#717070"/><ellipse cx="28.65115" cy="77.71619" rx="15.75686" ry="22.39711" transform="translate(-18.37567 9.53135) rotate(-14.35677)" fill="#717070"/><ellipse cx="105.86233" cy="43.27468" rx="24.22658" ry="17.07242" transform="translate(45.85766 140.63467) rotate(-80.58763)" fill="#717070"/><ellipse cx="135.59605" cy="81.03109" rx="22.39711" ry="15.75686" transform="translate(16.89912 185.25856) rotate(-72.14848)" fill="#717070"/><path d="M130.94168,119.29005c-1.57512-10.3642-14.351-16.68458-14.351-16.68458S106.25417,96.6082,98.43978,82.5344C92.38642,71.6323,85.738,69.66654,83.04751,69.33361l.00216-.07142s-8.74524-1.35179-17.403,12.2195S46.306,100.409,46.306,100.409s-13.13727,5.52987-15.34123,15.77881S35.28586,137.486,41.6686,140.87559c6.57073,3.48946,9.3077,5.55218,19.626,3.25953,9.91608-2.20326,8.70977-4.0955,18.36481-4.0467l-.00093.02943c10.99444.45339,9.14689,2.30148,19.30621,5.21879s13.41819,1.15356,19.78818-2.05709C125.20637,140.0268,132.51679,129.65434,130.94168,119.29005Z" fill="#717070"/></svg>